<?xml version="1.0" standalone="no"?>
<!DOCTYPE svg PUBLIC "-//W3C//DTD SVG 20010904//EN"
 "http://www.w3.org/TR/2001/REC-SVG-20010904/DTD/svg10.dtd">
<svg version="1.0" xmlns="http://www.w3.org/2000/svg"
 width="830.000000pt" height="182.000000pt" viewBox="0 0 830.000000 182.000000"
 preserveAspectRatio="xMidYMid meet">

<g transform="translate(0.000000,182.000000) scale(0.100000,-0.100000)"
fill="#000000" stroke="none">
<path d="M1133 1322 c-139 -50 -211 -172 -182 -310 21 -102 88 -151 291 -213
120 -36 148 -55 148 -100 0 -43 -17 -69 -55 -85 -84 -35 -194 -1 -230 71 -11
22 -20 41 -21 43 -1 1 -42 -7 -93 -19 -85 -19 -91 -22 -85 -42 25 -83 80 -143
169 -184 54 -25 71 -28 170 -28 144 0 200 19 271 90 77 76 102 172 69 264 -34
98 -96 142 -267 190 -150 42 -177 59 -177 111 0 96 183 110 239 18 11 -18 21
-36 23 -41 2 -6 154 39 166 49 10 9 -34 85 -68 118 -56 55 -121 78 -226 83
-70 3 -102 -1 -142 -15z"/>
<path d="M1873 1322 c-139 -50 -211 -172 -182 -310 21 -102 88 -151 291 -213
120 -36 148 -55 148 -100 0 -43 -17 -69 -55 -85 -84 -35 -194 -1 -230 71 -11
22 -20 41 -21 43 -1 1 -42 -7 -93 -19 -85 -19 -91 -22 -85 -42 25 -83 80 -143
169 -184 54 -25 71 -28 170 -28 144 0 200 19 271 90 77 76 102 172 69 264 -34
98 -96 142 -267 190 -150 42 -177 59 -177 111 0 96 183 110 239 18 11 -18 21
-36 23 -41 2 -6 154 39 166 49 10 9 -34 85 -68 118 -56 55 -121 78 -226 83
-70 3 -102 -1 -142 -15z"/>
<path d="M2613 1322 c-139 -50 -211 -172 -182 -310 21 -102 88 -151 291 -213
120 -36 148 -55 148 -100 0 -43 -17 -69 -55 -85 -84 -35 -194 -1 -230 71 -11
22 -20 41 -21 43 -1 1 -42 -7 -93 -19 -85 -19 -91 -22 -85 -42 25 -83 80 -143
169 -184 54 -25 71 -28 170 -28 144 0 200 19 271 90 77 76 102 172 69 264 -34
98 -96 142 -267 190 -150 42 -177 59 -177 111 0 96 183 110 239 18 11 -18 21
-36 23 -41 2 -6 154 39 166 49 10 9 -34 85 -68 118 -56 55 -121 78 -226 83
-70 3 -102 -1 -142 -15z"/>
<path d="M3130 1235 l0 -85 105 0 105 0 0 -340 0 -340 105 0 105 0 0 340 0
340 105 0 105 0 0 85 0 85 -315 0 -315 0 0 -85z"/>
<path d="M3842 983 l3 -338 30 -53 c56 -102 166 -149 330 -139 153 8 236 51
282 146 l28 56 3 333 4 332 -85 0 -85 0 -4 -313 c-3 -283 -5 -316 -21 -341
-49 -74 -205 -74 -254 0 -16 25 -18 58 -21 341 l-4 313 -104 0 -105 0 3 -337z"/>
<path d="M4590 1235 l0 -85 105 0 105 0 0 -340 0 -340 105 0 105 0 0 340 0
340 205 0 205 0 0 -340 0 -340 105 0 105 0 0 340 0 340 105 0 105 0 0 85 0 85
-625 0 -625 0 0 -85z"/>
<path d="M5920 895 l0 -425 310 0 310 0 0 85 0 85 -205 0 -205 0 0 85 0 85
160 0 160 0 0 85 0 85 -160 0 -160 0 0 85 0 85 205 0 205 0 0 85 0 85 -310 0
-310 0 0 -425z"/>
<path d="M6660 896 l0 -426 100 0 100 0 0 165 0 165 69 0 69 0 65 -162 65
-163 112 -3 c88 -2 111 0 107 10 -3 7 -38 89 -78 182 -65 152 -71 169 -55 178
40 22 90 76 107 113 41 90 14 230 -57 297 -62 58 -87 62 -356 66 l-248 4 0
-426z m414 264 c36 -13 61 -57 60 -103 -1 -30 -9 -47 -33 -71 -31 -30 -34 -31
-136 -34 l-105 -4 0 111 0 111 94 0 c52 0 106 -4 120 -10z"/>
</g>
</svg>
